<?xml version="1.0" encoding="UTF-8" standalone="no"?>
<!-- Created with Inkscape (http://www.inkscape.org/) -->

<svg
   xmlns:dc="http://purl.org/dc/elements/1.1/"
   xmlns:cc="http://creativecommons.org/ns#"
   xmlns:rdf="http://www.w3.org/1999/02/22-rdf-syntax-ns#"
   xmlns:svg="http://www.w3.org/2000/svg"
   xmlns="http://www.w3.org/2000/svg"
   xmlns:xlink="http://www.w3.org/1999/xlink"
   xmlns:sodipodi="http://sodipodi.sourceforge.net/DTD/sodipodi-0.dtd"
   xmlns:inkscape="http://www.inkscape.org/namespaces/inkscape"
   width="210mm"
   height="297mm"
   viewBox="0 0 210 297"
   version="1.1"
   id="svg8"
   inkscape:version="0.92.3 (2405546, 2018-03-11)"
   sodipodi:docname="fanon.svg"
   inkscape:export-filename="C:\Users\Chris\Desktop\Coding\hydro-village\hydroponic_system\assets\fanon.png"
   inkscape:export-xdpi="31.307411"
   inkscape:export-ydpi="31.307411">
  <defs
     id="defs2">
    <linearGradient
       id="linearGradient2778"
       inkscape:collect="always">
      <stop
         id="stop2774"
         offset="0"
         style="stop-color:#02394a;stop-opacity:1;" />
      <stop
         id="stop2776"
         offset="1"
         style="stop-color:#ffffff;stop-opacity:1" />
    </linearGradient>
    <linearGradient
       inkscape:collect="always"
       id="linearGradient852-3">
      <stop
         style="stop-color:#02394a;stop-opacity:1;"
         offset="0"
         id="stop848" />
      <stop
         style="stop-color:#02394a;stop-opacity:0;"
         offset="1"
         id="stop850" />
    </linearGradient>
    <linearGradient
       inkscape:collect="always"
       xlink:href="#linearGradient852-3"
       id="linearGradient854"
       x1="104.57738"
       y1="159.41667"
       x2="144.3869"
       y2="197.97025"
       gradientUnits="userSpaceOnUse" />
    <linearGradient
       inkscape:collect="always"
       xlink:href="#linearGradient2778"
       id="linearGradient1072"
       gradientUnits="userSpaceOnUse"
       x1="104.57738"
       y1="159.41667"
       x2="144.3869"
       y2="197.97025"
       gradientTransform="translate(-8.3154762,-10.583333)" />
    <linearGradient
       inkscape:collect="always"
       xlink:href="#linearGradient2778"
       id="linearGradient2794"
       gradientUnits="userSpaceOnUse"
       gradientTransform="translate(-14.363095,-18.142857)"
       x1="105.37919"
       y1="144.18231"
       x2="105.09828"
       y2="117.52212" />
    <linearGradient
       inkscape:collect="always"
       xlink:href="#linearGradient2778"
       id="linearGradient1464"
       gradientUnits="userSpaceOnUse"
       gradientTransform="translate(-14.363095,-18.142857)"
       x1="104.84465"
       y1="159.1494"
       x2="105.63282"
       y2="109.50403" />
  </defs>
  <sodipodi:namedview
     id="base"
     pagecolor="#ffffff"
     bordercolor="#666666"
     borderopacity="1.0"
     inkscape:pageopacity="0.0"
     inkscape:pageshadow="2"
     inkscape:zoom="0.49497475"
     inkscape:cx="-97.934645"
     inkscape:cy="579.6041"
     inkscape:document-units="mm"
     inkscape:current-layer="layer1"
     showgrid="false"
     inkscape:snap-global="false"
     inkscape:window-width="1360"
     inkscape:window-height="705"
     inkscape:window-x="-8"
     inkscape:window-y="-8"
     inkscape:window-maximized="1" />
  <metadata
     id="metadata5">
    <rdf:RDF>
      <cc:Work
         rdf:about="">
        <dc:format>image/svg+xml</dc:format>
        <dc:type
           rdf:resource="http://purl.org/dc/dcmitype/StillImage" />
        <dc:title />
      </cc:Work>
    </rdf:RDF>
  </metadata>
  <g
     inkscape:label="Layer 1"
     inkscape:groupmode="layer"
     id="layer1">
    <g
       id="g1490"
       inkscape:export-xdpi="21.915188"
       inkscape:export-ydpi="21.915188">
      <rect
         ry="12.8"
         y="99.696426"
         x="49.892857"
         height="80.130951"
         width="80.130951"
         id="rect815"
         style="opacity:1;fill:url(#linearGradient1464);fill-opacity:1;fill-rule:evenodd;stroke:#8e8e8e;stroke-width:1;stroke-linecap:round;stroke-linejoin:round;stroke-miterlimit:4;stroke-dasharray:none;stroke-dashoffset:0;stroke-opacity:1" />
      <rect
         ry="4.1577382"
         y="160.17264"
         x="63.122021"
         height="8.3154764"
         width="53.672619"
         id="rect961"
         style="opacity:1;fill:#ffc40a;fill-opacity:1;fill-rule:evenodd;stroke:#8e8e8e;stroke-width:1;stroke-linecap:round;stroke-linejoin:round;stroke-miterlimit:4;stroke-dasharray:none;stroke-dashoffset:0;stroke-opacity:1" />
      <g
         style="fill:#ffffff;fill-opacity:1"
         transform="matrix(0.115813,0,0,0.115813,89.958105,129.71176)"
         id="g1025">
        <g
           style="opacity:1;fill:#ffffff;fill-opacity:1;fill-rule:nonzero;stroke:none;stroke-width:0;stroke-linecap:butt;stroke-linejoin:miter;stroke-miterlimit:10;stroke-dasharray:none"
           transform="matrix(3.89,0,0,3.89,-175.05,-175.05)"
           id="g1023">
          <path
             inkscape:connector-curvature="0"
             d="m 51.728,67.763 7.243,12.272 H 31.028 l 7.243,-12.271 c 4.788,-10e-4 9.322,-10e-4 13.457,-10e-4 z"
             style="opacity:1;fill:#ffffff;fill-opacity:1;fill-rule:nonzero;stroke:none;stroke-width:1;stroke-linecap:butt;stroke-linejoin:miter;stroke-miterlimit:10;stroke-dasharray:none"
             id="path1007" />
          <path
             inkscape:connector-curvature="0"
             d="m 62.128,25.928 c -1.69,0 -3.269,0.466 -4.62,1.274 -1.732,1.037 -3.611,1.786 -5.568,2.166 -0.398,-0.493 -0.847,-0.942 -1.34,-1.34 0.381,-1.957 1.13,-3.836 2.166,-5.568 0.809,-1.351 1.274,-2.93 1.274,-4.62 0,-5.156 -4.316,-9.305 -9.533,-9.029 -4.423,0.234 -8.1,3.756 -8.51,8.166 -0.191,2.05 0.306,3.972 1.285,5.567 1.037,1.691 1.78,3.536 2.144,5.462 -0.504,0.404 -0.963,0.859 -1.369,1.362 -1.957,-0.381 -3.836,-1.13 -5.568,-2.166 -1.351,-0.809 -2.93,-1.274 -4.62,-1.274 -5.156,0 -9.305,4.316 -9.029,9.533 0.234,4.423 3.756,8.1 8.166,8.51 2.05,0.191 3.972,-0.306 5.567,-1.285 1.691,-1.037 3.536,-1.78 5.462,-2.144 0.411,0.513 0.877,0.979 1.39,1.39 -0.364,1.925 -1.106,3.771 -2.144,5.462 -0.979,1.595 -1.476,3.517 -1.285,5.567 0.41,4.41 4.087,7.932 8.51,8.166 5.217,0.276 9.533,-3.872 9.533,-9.029 0,-1.69 -0.466,-3.269 -1.274,-4.62 -1.037,-1.732 -1.786,-3.611 -2.166,-5.568 0.502,-0.406 0.958,-0.865 1.362,-1.369 1.925,0.364 3.771,1.106 5.462,2.144 1.595,0.979 3.517,1.476 5.567,1.285 4.41,-0.41 7.932,-4.087 8.166,-8.51 0.277,-5.216 -3.871,-9.532 -9.028,-9.532 z"
             style="opacity:1;fill:#ffffff;fill-opacity:1;fill-rule:nonzero;stroke:none;stroke-width:1;stroke-linecap:butt;stroke-linejoin:miter;stroke-miterlimit:10;stroke-dasharray:none"
             id="path1009" />
          <path
             inkscape:connector-curvature="0"
             d="M 45,69.939 C 25.718,69.939 10.031,54.252 10.031,34.97 10.03,15.687 25.718,0 45,0 64.282,0 79.97,15.687 79.97,34.969 79.97,54.252 64.282,69.939 45,69.939 Z M 45,4.918 C 28.429,4.918 14.949,18.399 14.949,34.969 14.949,51.539 28.43,65.02 45,65.02 61.57,65.02 75.052,51.539 75.052,34.969 75.052,18.399 61.57,4.918 45,4.918 Z"
             style="opacity:1;fill:#ffffff;fill-opacity:1;fill-rule:nonzero;stroke:none;stroke-width:1;stroke-linecap:butt;stroke-linejoin:miter;stroke-miterlimit:10;stroke-dasharray:none"
             id="path1011" />
          <path
             inkscape:connector-curvature="0"
             d="M 61.276,90 H 28.724 c -2.74,0 -4.982,-2.242 -4.982,-4.982 v 0 c 0,-2.74 2.242,-4.982 4.982,-4.982 h 32.552 c 2.74,0 4.982,2.242 4.982,4.982 v 0 c 0,2.74 -2.242,4.982 -4.982,4.982 z"
             style="opacity:1;fill:#ffffff;fill-opacity:1;fill-rule:nonzero;stroke:none;stroke-width:1;stroke-linecap:butt;stroke-linejoin:miter;stroke-miterlimit:10;stroke-dasharray:none"
             id="path1013" />
          <path
             inkscape:connector-curvature="0"
             d="m 56.681,86.001 h -4.928 c -0.544,0 -0.984,-0.44 -0.984,-0.984 0,-0.544 0.44,-0.984 0.984,-0.984 h 4.928 c 0.544,0 0.984,0.44 0.984,0.984 0,0.544 -0.44,0.984 -0.984,0.984 z"
             style="opacity:1;fill:#ffffff;fill-opacity:1;fill-rule:nonzero;stroke:none;stroke-width:1;stroke-linecap:butt;stroke-linejoin:miter;stroke-miterlimit:10;stroke-dasharray:none"
             id="path1015" />
          <path
             inkscape:connector-curvature="0"
             d="m 47.464,86.001 h -4.928 c -0.543,0 -0.984,-0.44 -0.984,-0.984 0,-0.544 0.44,-0.984 0.984,-0.984 h 4.928 c 0.544,0 0.984,0.44 0.984,0.984 -10e-4,0.544 -0.441,0.984 -0.984,0.984 z"
             style="opacity:1;fill:#ffffff;fill-opacity:1;fill-rule:nonzero;stroke:none;stroke-width:1;stroke-linecap:butt;stroke-linejoin:miter;stroke-miterlimit:10;stroke-dasharray:none"
             id="path1017" />
          <path
             inkscape:connector-curvature="0"
             d="m 38.247,86.001 h -4.928 c -0.543,0 -0.984,-0.44 -0.984,-0.984 0,-0.544 0.44,-0.984 0.984,-0.984 h 4.928 c 0.543,0 0.984,0.44 0.984,0.984 -0.001,0.544 -0.441,0.984 -0.984,0.984 z"
             style="opacity:1;fill:#ffffff;fill-opacity:1;fill-rule:nonzero;stroke:none;stroke-width:1;stroke-linecap:butt;stroke-linejoin:miter;stroke-miterlimit:10;stroke-dasharray:none"
             id="path1019" />
          <circle
             cx="44.998001"
             cy="34.967999"
             r="5.2680001"
             style="opacity:1;fill:#ffffff;fill-opacity:1;fill-rule:nonzero;stroke:none;stroke-width:1;stroke-linecap:butt;stroke-linejoin:miter;stroke-miterlimit:10;stroke-dasharray:none"
             id="circle1021" />
        </g>
      </g>
    </g>
  </g>
</svg>
