<?xml version="1.0" encoding="UTF-8" standalone="no"?>
<!-- Created with Inkscape (http://www.inkscape.org/) -->

<svg
   xmlns:dc="http://purl.org/dc/elements/1.1/"
   xmlns:cc="http://creativecommons.org/ns#"
   xmlns:rdf="http://www.w3.org/1999/02/22-rdf-syntax-ns#"
   xmlns:svg="http://www.w3.org/2000/svg"
   xmlns="http://www.w3.org/2000/svg"
   xmlns:xlink="http://www.w3.org/1999/xlink"
   xmlns:sodipodi="http://sodipodi.sourceforge.net/DTD/sodipodi-0.dtd"
   xmlns:inkscape="http://www.inkscape.org/namespaces/inkscape"
   width="210mm"
   height="297mm"
   viewBox="0 0 210 297"
   version="1.1"
   id="svg8"
   inkscape:version="0.92.3 (2405546, 2018-03-11)"
   sodipodi:docname="settings.svg">
  <defs
     id="defs2">
    <linearGradient
       inkscape:collect="always"
       id="linearGradient823">
      <stop
         style="stop-color:#02394a;stop-opacity:1;"
         offset="0"
         id="stop819" />
      <stop
         style="stop-color:#ffffff;stop-opacity:1"
         offset="1"
         id="stop821" />
    </linearGradient>
    <linearGradient
       inkscape:collect="always"
       xlink:href="#linearGradient823"
       id="linearGradient825"
       x1="108.85715"
       y1="154.88095"
       x2="154.97025"
       y2="200.99405"
       gradientUnits="userSpaceOnUse" />
  </defs>
  <sodipodi:namedview
     id="base"
     pagecolor="#ffffff"
     bordercolor="#666666"
     borderopacity="1.0"
     inkscape:pageopacity="0.0"
     inkscape:pageshadow="2"
     inkscape:zoom="0.35"
     inkscape:cx="-111.42857"
     inkscape:cy="560"
     inkscape:document-units="mm"
     inkscape:current-layer="layer1"
     showgrid="false"
     inkscape:window-width="1360"
     inkscape:window-height="705"
     inkscape:window-x="-8"
     inkscape:window-y="-8"
     inkscape:window-maximized="1" />
  <metadata
     id="metadata5">
    <rdf:RDF>
      <cc:Work
         rdf:about="">
        <dc:format>image/svg+xml</dc:format>
        <dc:type
           rdf:resource="http://purl.org/dc/dcmitype/StillImage" />
        <dc:title></dc:title>
      </cc:Work>
    </rdf:RDF>
  </metadata>
  <g
     inkscape:label="Layer 1"
     inkscape:groupmode="layer"
     id="layer1">
    <g
       id="g906"
       inkscape:export-xdpi="13.823847"
       inkscape:export-ydpi="13.823847">
      <rect
         ry="12.800012"
         y="109.5238"
         x="63.5"
         height="91.470238"
         width="91.470238"
         id="rect817"
         style="opacity:1;fill:url(#linearGradient825);fill-opacity:1;fill-rule:evenodd;stroke:#b3afaf;stroke-width:0.4;stroke-linecap:round;stroke-linejoin:round;stroke-miterlimit:4;stroke-dasharray:none;stroke-dashoffset:0;stroke-opacity:1" />
      <g
         style="fill:#ffffff;fill-opacity:1"
         transform="matrix(0.13030885,0,0,0.13030885,77.322351,123.34615)"
         id="g885">
        <g
           style="fill:#ffffff;fill-opacity:1"
           id="g829">
	<path
   style="fill:#ffffff;fill-opacity:1"
   inkscape:connector-curvature="0"
   d="m 20.701,281.901 32.1,0.2 c 4.8,24.7 14.3,48.7 28.7,70.5 l -22.8,22.6 c -8.2,8.1 -8.2,21.2 -0.2,29.4 l 24.6,24.9 c 8.1,8.2 21.2,8.2 29.4,0.2 l 22.8,-22.6 c 21.6,14.6 45.5,24.5 70.2,29.5 l -0.2,32.1 c -0.1,11.5 9.2,20.8 20.7,20.9 l 35,0.2 c 11.5,0.1 20.8,-9.2 20.9,-20.7 l 0.2,-32.1 c 24.7,-4.8 48.7,-14.3 70.5,-28.7 l 22.6,22.8 c 8.1,8.2 21.2,8.2 29.4,0.2 l 24.9,-24.6 c 8.2,-8.1 8.2,-21.2 0.2,-29.4 l -22.6,-22.8 c 14.6,-21.6 24.5,-45.5 29.5,-70.2 l 32.1,0.2 c 11.5,0.1 20.8,-9.2 20.9,-20.7 l 0.2,-35 c 0.1,-11.5 -9.2,-20.8 -20.7,-20.9 l -32.1,-0.2 c -4.8,-24.7 -14.3,-48.7 -28.7,-70.5 l 22.8,-22.6 c 8.2,-8.1 8.2,-21.2 0.2,-29.4 l -24.6,-24.9 c -8.1,-8.2 -21.2,-8.2 -29.4,-0.2 l -22.8,22.6 c -21.6,-14.6 -45.5,-24.5 -70.2,-29.5 l 0.2,-32.1 c 0.1,-11.5 -9.2,-20.8 -20.7,-20.9 l -35,-0.2 c -11.5,-0.1 -20.8,9.2 -20.9,20.7 l -0.3,32.1 c -24.8,4.8 -48.8,14.3 -70.5,28.7 l -22.6,-22.8 c -8.1,-8.2 -21.2,-8.2 -29.4,-0.2 l -24.8,24.6 c -8.2,8.1 -8.2,21.2 -0.2,29.4 l 22.6,22.8 c -14.6,21.6 -24.5,45.5 -29.5,70.2 l -32.1,-0.2 c -11.5,-0.1 -20.8,9.2 -20.9,20.7 l -0.2,35 c -0.1,11.4 9.2,20.8 20.7,20.9 z m 158.6,-103.3 c 36.6,-36.2 95.5,-35.9 131.7,0.7 36.2,36.6 35.9,95.5 -0.7,131.7 -36.6,36.2 -95.5,35.9 -131.7,-0.7 -36.2,-36.6 -35.9,-95.5 0.7,-131.7 z"
   id="path827" />

</g>
        <g
           style="fill:#ffffff;fill-opacity:1"
           id="g831">
</g>
        <g
           style="fill:#ffffff;fill-opacity:1"
           id="g833">
</g>
        <g
           style="fill:#ffffff;fill-opacity:1"
           id="g835">
</g>
        <g
           style="fill:#ffffff;fill-opacity:1"
           id="g837">
</g>
        <g
           style="fill:#ffffff;fill-opacity:1"
           id="g839">
</g>
        <g
           style="fill:#ffffff;fill-opacity:1"
           id="g841">
</g>
        <g
           style="fill:#ffffff;fill-opacity:1"
           id="g843">
</g>
        <g
           style="fill:#ffffff;fill-opacity:1"
           id="g845">
</g>
        <g
           style="fill:#ffffff;fill-opacity:1"
           id="g847">
</g>
        <g
           style="fill:#ffffff;fill-opacity:1"
           id="g849">
</g>
        <g
           style="fill:#ffffff;fill-opacity:1"
           id="g851">
</g>
        <g
           style="fill:#ffffff;fill-opacity:1"
           id="g853">
</g>
        <g
           style="fill:#ffffff;fill-opacity:1"
           id="g855">
</g>
        <g
           style="fill:#ffffff;fill-opacity:1"
           id="g857">
</g>
        <g
           style="fill:#ffffff;fill-opacity:1"
           id="g859">
</g>
      </g>
    </g>
  </g>
</svg>
